<svg width="73" height="73" viewBox="0 0 73 73" fill="none" xmlns="http://www.w3.org/2000/svg">
<path d="M36.0678 0C28.9343 -8.50666e-08 21.9609 2.11534 16.0296 6.07852C10.0983 10.0417 5.47541 15.6747 2.74552 22.2652C0.0156288 28.8558 -0.698635 36.1078 0.693047 43.1043C2.08473 50.1007 5.51986 56.5274 10.564 61.5716C15.6082 66.6157 22.0348 70.0509 29.0313 71.4426C36.0278 72.8342 43.2798 72.12 49.8703 69.3901C56.4609 66.6602 62.0939 62.0373 66.0571 56.106C70.0202 50.1747 72.1356 43.2013 72.1356 36.0678H54.1017C54.1017 39.6346 53.044 43.1212 51.0624 46.0869C49.0808 49.0526 46.2643 51.364 42.9691 52.7289C39.6738 54.0939 36.0478 54.451 32.5496 53.7552C29.0513 53.0593 25.838 51.3418 23.3159 48.8197C20.7938 46.2976 19.0763 43.0843 18.3804 39.586C17.6846 36.0878 18.0417 32.4618 19.4066 29.1665C20.7716 25.8713 23.083 23.0547 26.0487 21.0732C29.0144 19.0916 32.501 18.0339 36.0678 18.0339V0Z" fill="white"/>
<path d="M36.0678 0C31.3313 -5.64821e-08 26.6412 0.932921 22.2652 2.7455C17.8893 4.55807 13.9132 7.21481 10.564 10.564C7.21481 13.9132 4.55807 17.8893 2.7455 22.2653C0.93292 26.6412 -7.1519e-07 31.3313 0 36.0678H18.0339C18.0339 33.6996 18.5004 31.3545 19.4066 29.1665C20.3129 26.9785 21.6413 24.9905 23.3159 23.3159C24.9905 21.6413 26.9785 20.3129 29.1665 19.4066C31.3545 18.5004 33.6995 18.0339 36.0678 18.0339V0Z" fill="#5CE1E6"/>
<path d="M36.0678 47.3388C42.2927 47.3388 47.339 42.2925 47.339 36.0676C47.339 29.8427 42.2927 24.7964 36.0678 24.7964C29.8429 24.7964 24.7966 29.8427 24.7966 36.0676C24.7966 42.2925 29.8429 47.3388 36.0678 47.3388Z" fill="#5CE1E6"/>
<path d="M47.339 36.0676C47.339 34.5875 47.0475 33.1218 46.481 31.7543C45.9146 30.3868 45.0844 29.1443 44.0377 28.0977C42.9911 27.0511 41.7486 26.2208 40.3811 25.6544C39.0136 25.088 37.548 24.7964 36.0678 24.7964C34.5876 24.7964 33.122 25.088 31.7545 25.6544C30.387 26.2208 29.1445 27.0511 28.0979 28.0977C27.0512 29.1443 26.221 30.3868 25.6546 31.7543C25.0882 33.1218 24.7966 34.5875 24.7966 36.0676H36.0678H47.339Z" fill="white"/>
</svg>
